<?xml version="1.0" standalone="no"?><!DOCTYPE svg PUBLIC "-//W3C//DTD SVG 1.1//EN" "http://www.w3.org/Graphics/SVG/1.1/DTD/svg11.dtd"><svg t="1655868089329" class="icon" viewBox="0 0 1024 1024" version="1.1" xmlns="http://www.w3.org/2000/svg" p-id="2585" xmlns:xlink="http://www.w3.org/1999/xlink" width="200" height="200"><defs><style type="text/css">@font-face { font-family: feedback-iconfont; src: url("//at.alicdn.com/t/font_1031158_u69w8yhxdu.woff2?t=1630033759944") format("woff2"), url("//at.alicdn.com/t/font_1031158_u69w8yhxdu.woff?t=1630033759944") format("woff"), url("//at.alicdn.com/t/font_1031158_u69w8yhxdu.ttf?t=1630033759944") format("truetype"); }
</style></defs><path d="M426.666667 256m21.333333 0l0 0q21.333333 0 21.333333 21.333333l0 298.666667q0 21.333333-21.333333 21.333333l0 0q-21.333333 0-21.333333-21.333333l0-298.666667q0-21.333333 21.333333-21.333333Z" p-id="2586"></path><path d="M256 384m21.333333 0l0 0q21.333333 0 21.333334 21.333333l0 170.666667q0 21.333333-21.333334 21.333333l0 0q-21.333333 0-21.333333-21.333333l0-170.666667q0-21.333333 21.333333-21.333333Z" p-id="2587"></path><path d="M597.333333 426.666667m21.333334 0l0 0q21.333333 0 21.333333 21.333333l0 128q0 21.333333-21.333333 21.333333l0 0q-21.333333 0-21.333334-21.333333l0-128q0-21.333333 21.333334-21.333333Z" p-id="2588"></path><path d="M668.653776 698.823665m15.084945-15.084944l0 0q15.084945-15.084945 30.169889 0l181.019336 181.019336q15.084945 15.084945 0 30.169889l0 0q-15.084945 15.084945-30.169889 0l-181.019336-181.019336q-15.084945-15.084945 0-30.169889Z" p-id="2589"></path><path d="M448 85.333333a362.666667 362.666667 0 1 1 0 725.333334 362.666667 362.666667 0 0 1 0-725.333334z m0 42.666667a320 320 0 1 0 0 640 320 320 0 0 0 0-640z" p-id="2590"></path></svg>