<?xml version="1.0" standalone="no"?><!DOCTYPE svg PUBLIC "-//W3C//DTD SVG 1.1//EN" "http://www.w3.org/Graphics/SVG/1.1/DTD/svg11.dtd"><svg t="1655867715413" class="icon" viewBox="0 0 1024 1024" version="1.1" xmlns="http://www.w3.org/2000/svg" p-id="2173" xmlns:xlink="http://www.w3.org/1999/xlink" width="200" height="200"><defs><style type="text/css">@font-face { font-family: feedback-iconfont; src: url("//at.alicdn.com/t/font_1031158_u69w8yhxdu.woff2?t=1630033759944") format("woff2"), url("//at.alicdn.com/t/font_1031158_u69w8yhxdu.woff?t=1630033759944") format("woff"), url("//at.alicdn.com/t/font_1031158_u69w8yhxdu.ttf?t=1630033759944") format("truetype"); }
</style></defs><path d="M527.786667 91.050667c0.298667 0.298667 40.405333 32 102.869333 63.104 56.832 28.330667 144.597333 62.122667 239.914667 62.122666 14.037333 0 25.429333 10.666667 25.429333 23.722667v271.914667c-1.109333 80.042667-21.802667 152.405333-61.568 215.125333-31.744 50.133333-75.562667 93.952-130.218667 130.304-92.288 61.44-183.253333 79.957333-186.965333 80.682667a21.930667 21.930667 0 0 1-10.24 0.128c-3.84-0.768-95.914667-18.773333-188.885333-79.872-55.04-36.138667-98.986667-79.957333-130.56-130.218667C147.968 665.386667 128 592.64 128 512V240c0-13.056 11.392-23.722667 25.429333-23.722667 187.306667 0 339.541333-123.733333 340.992-125.013333A26.794667 26.794667 0 0 1 527.786667 91.050667z m-1.792 42.069333a23.594667 23.594667 0 0 0-29.610667 0.213333c-1.28 1.109333-136.661333 112.512-303.146667 112.512-12.416 0-22.570667 9.6-22.570666 21.333334V512c0 72.533333 17.792 138.069333 52.906666 194.474667 28.16 45.226667 67.2 84.650667 116.053334 117.162666 82.645333 55.04 164.48 71.253333 167.893333 71.893334a19.242667 19.242667 0 0 0 9.130667-0.085334c3.328-0.682667 84.138667-17.365333 166.186666-72.661333 48.64-32.682667 87.552-72.106667 115.754667-117.248 35.370667-56.448 53.76-121.6 54.741333-193.621333V267.178667c0-11.733333-10.154667-21.333333-22.613333-21.333334-84.736 0-162.730667-30.421333-213.248-55.893333-55.509333-27.989333-91.178667-56.533333-91.477333-56.832z" p-id="2174"></path><path d="M298.666667 341.333333m21.333333 0l384 0q21.333333 0 21.333333 21.333334l0 0q0 21.333333-21.333333 21.333333l-384 0q-21.333333 0-21.333333-21.333333l0 0q0-21.333333 21.333333-21.333334Z" p-id="2175"></path><path d="M298.666667 469.333333m21.333333 0l384 0q21.333333 0 21.333333 21.333334l0 0q0 21.333333-21.333333 21.333333l-384 0q-21.333333 0-21.333333-21.333333l0 0q0-21.333333 21.333333-21.333334Z" p-id="2176"></path><path d="M298.666667 597.333333m21.333333 0l256 0q21.333333 0 21.333333 21.333334l0 0q0 21.333333-21.333333 21.333333l-256 0q-21.333333 0-21.333333-21.333333l0 0q0-21.333333 21.333333-21.333334Z" p-id="2177"></path></svg>