<?xml version="1.0" standalone="no"?><!DOCTYPE svg PUBLIC "-//W3C//DTD SVG 1.1//EN" "http://www.w3.org/Graphics/SVG/1.1/DTD/svg11.dtd"><svg t="1655868203829" class="icon" viewBox="0 0 1024 1024" version="1.1" xmlns="http://www.w3.org/2000/svg" p-id="2724" xmlns:xlink="http://www.w3.org/1999/xlink" width="200" height="200"><defs><style type="text/css">@font-face { font-family: feedback-iconfont; src: url("//at.alicdn.com/t/font_1031158_u69w8yhxdu.woff2?t=1630033759944") format("woff2"), url("//at.alicdn.com/t/font_1031158_u69w8yhxdu.woff?t=1630033759944") format("woff"), url("//at.alicdn.com/t/font_1031158_u69w8yhxdu.ttf?t=1630033759944") format("truetype"); }
</style></defs><path d="M512 85.333333c42.666667 0 384 213.333333 384 469.333334 0 213.333333-171.946667 384-384 384a384 384 0 0 1-384-384c0-256 341.333333-469.333333 384-469.333334z m0 42.666667c-12.458667 0-107.562667 60.074667-178.773333 127.061333C231.594667 350.762667 170.666667 455.168 170.666667 554.666667a341.333333 341.333333 0 0 0 341.333333 341.333333c188.970667 0 341.333333-152.021333 341.333333-341.333333 0-99.498667-60.928-203.946667-162.56-299.605334C619.52 188.074667 524.458667 128 512 128z" p-id="2725"></path><path d="M411.562667 454.229333a21.333333 21.333333 0 0 1 27.221333-2.432l2.986667 2.432L597.333333 609.834667l112.896-112.938667a21.333333 21.333333 0 0 1 27.221334-2.432l2.986666 2.432a21.333333 21.333333 0 0 1 2.432 27.221333l-2.432 2.986667-128 128a21.333333 21.333333 0 0 1-27.221333 2.432l-2.986667-2.432L426.666667 499.498667l-112.896 112.938666a21.333333 21.333333 0 0 1-27.221334 2.432l-2.986666-2.432a21.333333 21.333333 0 0 1-2.432-27.221333l2.432-2.986667 128-128z" p-id="2726"></path></svg>