<?xml version="1.0" standalone="no"?><!DOCTYPE svg PUBLIC "-//W3C//DTD SVG 1.1//EN" "http://www.w3.org/Graphics/SVG/1.1/DTD/svg11.dtd"><svg t="1655867589595" class="icon" viewBox="0 0 1024 1024" version="1.1" xmlns="http://www.w3.org/2000/svg" p-id="2034" xmlns:xlink="http://www.w3.org/1999/xlink" width="200" height="200"><defs><style type="text/css">@font-face { font-family: feedback-iconfont; src: url("//at.alicdn.com/t/font_1031158_u69w8yhxdu.woff2?t=1630033759944") format("woff2"), url("//at.alicdn.com/t/font_1031158_u69w8yhxdu.woff?t=1630033759944") format("woff"), url("//at.alicdn.com/t/font_1031158_u69w8yhxdu.ttf?t=1630033759944") format("truetype"); }
</style></defs><path d="M298.666667 170.666667v42.666666H213.333333a42.666667 42.666667 0 0 0-42.368 37.674667L170.666667 256v597.333333a42.666667 42.666667 0 0 0 37.674666 42.368L213.333333 896h597.333334a42.666667 42.666667 0 0 0 42.368-37.674667L853.333333 853.333333V256a42.666667 42.666667 0 0 0-42.666666-42.666667h-85.333334V170.666667h85.333334a85.333333 85.333333 0 0 1 85.333333 85.333333v597.333333a85.333333 85.333333 0 0 1-85.333333 85.333334H213.333333a85.333333 85.333333 0 0 1-85.333333-85.333334V256a85.333333 85.333333 0 0 1 85.333333-85.333333h85.333334z m298.666666 42.666666H426.666667V170.666667h170.666666v42.666666z" p-id="2035"></path><path d="M341.333333 85.333333m21.333334 0l0 0q21.333333 0 21.333333 21.333334l0 170.666666q0 21.333333-21.333333 21.333334l0 0q-21.333333 0-21.333334-21.333334l0-170.666666q0-21.333333 21.333334-21.333334Z" p-id="2036"></path><path d="M298.666667 469.333333m21.333333 0l384 0q21.333333 0 21.333333 21.333334l0 0q0 21.333333-21.333333 21.333333l-384 0q-21.333333 0-21.333333-21.333333l0 0q0-21.333333 21.333333-21.333334Z" p-id="2037"></path><path d="M298.666667 682.666667m21.333333 0l384 0q21.333333 0 21.333333 21.333333l0 0q0 21.333333-21.333333 21.333333l-384 0q-21.333333 0-21.333333-21.333333l0 0q0-21.333333 21.333333-21.333333Z" p-id="2038"></path><path d="M640 85.333333m21.333333 0l0 0q21.333333 0 21.333334 21.333334l0 170.666666q0 21.333333-21.333334 21.333334l0 0q-21.333333 0-21.333333-21.333334l0-170.666666q0-21.333333 21.333333-21.333334Z" p-id="2039"></path></svg>