<?xml version="1.0" standalone="no"?><!DOCTYPE svg PUBLIC "-//W3C//DTD SVG 1.1//EN" "http://www.w3.org/Graphics/SVG/1.1/DTD/svg11.dtd"><svg t="1655868003579" class="icon" viewBox="0 0 1024 1024" version="1.1" xmlns="http://www.w3.org/2000/svg" p-id="2448" xmlns:xlink="http://www.w3.org/1999/xlink" width="200" height="200"><defs><style type="text/css">@font-face { font-family: feedback-iconfont; src: url("//at.alicdn.com/t/font_1031158_u69w8yhxdu.woff2?t=1630033759944") format("woff2"), url("//at.alicdn.com/t/font_1031158_u69w8yhxdu.woff?t=1630033759944") format("woff"), url("//at.alicdn.com/t/font_1031158_u69w8yhxdu.ttf?t=1630033759944") format("truetype"); }
</style></defs><path d="M512 85.333333l384 213.333334v469.333333l-384 213.333333-384-213.333333V298.666667l384-213.333334z m0 48.810667L170.666667 323.754667v419.114666l341.333333 189.610667 341.333333-189.610667V323.754667l-341.333333-189.610667z" p-id="2449"></path><path d="M280.362667 373.034667a21.333333 21.333333 0 0 1 25.813333-9.002667l3.456 1.706667 223.701333 134.186666V768a21.333333 21.333333 0 0 1-42.325333 3.84L490.666667 768v-243.925333L287.701333 402.304a21.333333 21.333333 0 0 1-9.002666-25.813333l1.706666-3.456z" p-id="2450"></path><path d="M714.368 365.696a21.333333 21.333333 0 0 1 25.045333 34.346667l-3.114666 2.261333-213.333334 128a21.333333 21.333333 0 0 1-25.045333-34.346667l3.114667-2.261333 213.333333-128z" p-id="2451"></path></svg>