<?xml version="1.0" standalone="no"?><!DOCTYPE svg PUBLIC "-//W3C//DTD SVG 1.1//EN" "http://www.w3.org/Graphics/SVG/1.1/DTD/svg11.dtd"><svg t="1655867897702" class="icon" viewBox="0 0 1024 1024" version="1.1" xmlns="http://www.w3.org/2000/svg" p-id="2311" xmlns:xlink="http://www.w3.org/1999/xlink" width="200" height="200"><defs><style type="text/css">@font-face { font-family: feedback-iconfont; src: url("//at.alicdn.com/t/font_1031158_u69w8yhxdu.woff2?t=1630033759944") format("woff2"), url("//at.alicdn.com/t/font_1031158_u69w8yhxdu.woff?t=1630033759944") format("woff"), url("//at.alicdn.com/t/font_1031158_u69w8yhxdu.ttf?t=1630033759944") format("truetype"); }
</style></defs><path d="M853.333333 128a85.333333 85.333333 0 0 1 85.333334 85.333333v597.333334a85.333333 85.333333 0 0 1-85.333334 85.333333H170.666667a85.333333 85.333333 0 0 1-85.333334-85.333333V213.333333a85.333333 85.333333 0 0 1 85.333334-85.333333h682.666666z m0 42.666667H170.666667a42.666667 42.666667 0 0 0-42.666667 42.666666v597.333334a42.666667 42.666667 0 0 0 42.666667 42.666666h682.666666a42.666667 42.666667 0 0 0 42.666667-42.666666V213.333333a42.666667 42.666667 0 0 0-42.666667-42.666666z" p-id="2312"></path><path d="M85.333333 298.666667m21.333334 0l810.666666 0q21.333333 0 21.333334 21.333333l0 0q0 21.333333-21.333334 21.333333l-810.666666 0q-21.333333 0-21.333334-21.333333l0 0q0-21.333333 21.333334-21.333333Z" p-id="2313"></path><path d="M750.250667 414.848a21.333333 21.333333 0 0 1 37.333333 20.266667l-1.834667 3.413333-170.666666 256a21.333333 21.333333 0 0 1-29.824 5.76l-2.986667-2.56-152.277333-152.234667-156.245334 234.325334a21.333333 21.333333 0 0 1-26.197333 7.765333l-3.413333-1.834667a21.333333 21.333333 0 0 1-7.722667-26.197333l1.834667-3.413333 170.666666-256a21.333333 21.333333 0 0 1 29.824-5.76l2.986667 2.56 152.234667 152.192 156.288-234.282667z" p-id="2314"></path></svg>