<?xml version="1.0" standalone="no"?><!DOCTYPE svg PUBLIC "-//W3C//DTD SVG 1.1//EN" "http://www.w3.org/Graphics/SVG/1.1/DTD/svg11.dtd"><svg t="1655867081570" class="icon" viewBox="0 0 1024 1024" version="1.1" xmlns="http://www.w3.org/2000/svg" p-id="1868" width="200" height="200" xmlns:xlink="http://www.w3.org/1999/xlink"><defs><style type="text/css">@font-face { font-family: feedback-iconfont; src: url("//at.alicdn.com/t/font_1031158_u69w8yhxdu.woff2?t=1630033759944") format("woff2"), url("//at.alicdn.com/t/font_1031158_u69w8yhxdu.woff?t=1630033759944") format("woff"), url("//at.alicdn.com/t/font_1031158_u69w8yhxdu.ttf?t=1630033759944") format("truetype"); }
</style></defs><path d="M426.666667 550.4a341.333333 341.333333 0 0 1 341.333333 341.333333h-42.666667a298.666667 298.666667 0 0 0-597.333333 0H85.333333a341.333333 341.333333 0 0 1 341.333334-341.333333zM810.666667 337.066667a213.418667 213.418667 0 0 1-170.624 209.066666v-43.818666a170.752 170.752 0 0 0 0-330.538667V128A213.418667 213.418667 0 0 1 810.666667 337.066667z" p-id="1869"></path><path d="M426.666667 166.4a213.333333 213.333333 0 1 1 0 426.666667 213.333333 213.333333 0 0 1 0-426.666667z m0 42.666667a170.666667 170.666667 0 1 0 0 341.333333 170.666667 170.666667 0 0 0 0-341.333333zM938.666667 849.066667h-42.666667a298.752 298.752 0 0 0-256-295.68v-43.008c168.362667 20.992 298.666667 164.608 298.666667 338.688z" p-id="1870"></path></svg>